<?xml version="1.0" encoding="UTF-8" standalone="no"?>
<svg
   width="224.91016pt"
   height="264.08984pt"
   viewBox="0 0 224.91015 264.08984"
   version="1.1"
   id="svg76"
   sodipodi:docname="LCD-ID-logo_ink.svg"
   inkscape:version="1.2.1 (9c6d41e410, 2022-07-14, custom)"
   xmlns:inkscape="http://www.inkscape.org/namespaces/inkscape"
   xmlns:sodipodi="http://sodipodi.sourceforge.net/DTD/sodipodi-0.dtd"
   xmlns="http://www.w3.org/2000/svg"
   xmlns:svg="http://www.w3.org/2000/svg">
  <sodipodi:namedview
     id="namedview78"
     pagecolor="#ffffff"
     bordercolor="#000000"
     borderopacity="0.25"
     inkscape:showpageshadow="2"
     inkscape:pageopacity="0.0"
     inkscape:pagecheckerboard="0"
     inkscape:deskcolor="#d1d1d1"
     inkscape:document-units="pt"
     showgrid="false"
     inkscape:zoom="0.96515471"
     inkscape:cx="134.69343"
     inkscape:cy="175.10146"
     inkscape:window-width="1920"
     inkscape:window-height="1011"
     inkscape:window-x="0"
     inkscape:window-y="32"
     inkscape:window-maximized="1"
     inkscape:current-layer="svg76" />
  <defs
     id="defs5">
    <clipPath
       id="clip1">
      <path
         d="m 0,651.96875 h 651 v -651 H 0 Z m 0,0"
         id="path2" />
    </clipPath>
  </defs>
  <g
     id="surface0"
     transform="translate(-225.54297,-194.78906)">
    <g
       clip-path="url(#clip1)"
       clip-rule="nonzero"
       id="g73">
      <path
         style="fill:#514f4f;fill-opacity:1;fill-rule:nonzero;stroke:none"
         d="m 227.86328,292.14844 v -95.76953 h 20.03125 v 79.85156 h 29.97656 v 15.91797 z m 0,0"
         id="path7" />
      <path
         style="fill:#514f4f;fill-opacity:1;fill-rule:nonzero;stroke:none"
         d="m 285.69141,244.26562 c 0,-25.33593 0,-49.47656 33.03125,-49.47656 20.42578,0 28.65234,11.27344 27.85546,31.83203 h -19.63281 c 0,-12.73047 -2.2539,-17.50781 -8.22265,-17.50781 -11.27344,0 -12.73438,10.61328 -12.73438,35.15234 0,24.53907 1.46094,35.14844 12.73438,35.14844 9.28515,0 8.88671,-11.9375 9.15234,-19.49609 h 19.76172 c 0,25.59765 -10.21094,33.82422 -28.91406,33.82422 -33.03125,0 -33.03125,-24.40625 -33.03125,-49.47657"
         id="path9" />
      <path
         style="fill:#514f4f;fill-opacity:1;fill-rule:nonzero;stroke:none"
         d="m 380.79687,277.42578 h 9.6836 c 12.20312,0 14.58984,-9.15234 14.58984,-33.16016 0,-17.64453 0,-33.16406 -13.92578,-33.16406 h -10.34766 z m -20.02734,-81.04687 h 33.42188 c 26.26562,0 31.17187,17.50781 31.17187,47.35546 0,14.72266 2.25781,48.41407 -31.96484,48.41407 h -32.62891 z m 0,0"
         id="path11" />
      <path
         style="fill:#514f4f;fill-opacity:1;fill-rule:evenodd;stroke:none"
         d="m 228.125,321.13281 h 49.87109 V 305.52344 H 228.125 Z m 0,0"
         id="path13" />
      <path
         style="fill:#514f4f;fill-opacity:1;fill-rule:evenodd;stroke:none"
         d="m 360.26562,321.13281 h 49.8711 v -15.60937 h -49.8711 z m 0,0"
         id="path15" />
      <path
         style="fill:#514f4f;fill-opacity:1;fill-rule:evenodd;stroke:none"
         d="m 294.19531,321.13281 h 49.8711 v -15.60937 h -49.8711 z m 0,0"
         id="path17" />
      <path
         style="fill:#514f4f;fill-opacity:1;fill-rule:nonzero;stroke:none"
         d="m 225.54297,380.28125 v -28.16016 h 3.58984 v 25.03907 h 10.33594 v 3.12109 z m 0,0"
         id="path19" />
      <path
         style="fill:#514f4f;fill-opacity:1;fill-rule:nonzero;stroke:none"
         d="m 251.40234,355.4375 h -0.0781 l -4.40625,15.01562 h 9.00781 z m -2.18359,-3.31641 h 4.5625 l 9.16797,28.16016 h -4.01953 l -2.03125,-6.70703 h -10.87891 l -2.10547,6.70703 h -3.625 z m 0,0"
         id="path21" />
      <path
         style="fill:#514f4f;fill-opacity:1;fill-rule:nonzero;stroke:none"
         d="m 270.63281,377.16016 h 5.07031 c 3.82422,0 5.1875,-2.73047 5.1875,-4.79688 0,-4.48437 -2.76953,-5.26562 -6.43359,-5.26562 h -3.82422 z m 0,-13.1836 h 5.22656 c 2.8086,-0.0391 4.17188,-1.7539 4.17188,-4.48437 0,-2.33985 -1.32422,-4.25 -4.32813,-4.25 h -5.07031 z m -3.58984,16.30469 v -28.16016 h 9.16797 c 3.89843,0 5.22656,1.32813 6.27734,2.88672 0.97656,1.51953 1.13281,3.19922 1.13281,3.7461 0,3.50781 -1.21093,5.84765 -4.83593,6.66796 v 0.19532 c 4.01562,0.46875 5.77343,2.88672 5.77343,6.74609 0,7.21484 -5.26562,7.91797 -8.46484,7.91797 z m 0,0"
         id="path23" />
      <path
         style="fill:#514f4f;fill-opacity:1;fill-rule:nonzero;stroke:none"
         d="m 304.45312,370.14062 v -9.51953 c 0,-5.88672 -4.05859,-6.08203 -5.1914,-6.08203 -1.12891,0 -5.1836,0.19531 -5.1836,6.08203 v 9.51953 c 0,6.16016 1.79297,7.72266 5.1836,7.72266 3.39453,0 5.1914,-1.5625 5.1914,-7.72266 m -14.04296,-0.15625 v -9.24218 c 0,-5.61719 2.88671,-9.20703 8.85156,-9.20703 5.96875,0 8.85547,3.58984 8.85547,9.20703 v 9.24218 c 0,7.80079 -2.88672,10.88282 -8.85547,10.88282 -5.96485,0 -8.85156,-3.08203 -8.85156,-10.88282"
         id="path25" />
      <path
         style="fill:#514f4f;fill-opacity:1;fill-rule:nonzero;stroke:none"
         d="m 317.87109,364.21094 h 5.38282 c 2.57421,0 3.82031,-2.22266 3.82031,-4.67969 0,-2.02734 -1.01563,-4.28906 -3.78125,-4.28906 h -5.42188 z m 0,3.12109 v 12.94922 h -3.58984 v -28.16016 h 9.71094 c 4.99218,0 6.74609,3.51172 6.74609,7.01953 0,3.31641 -1.83203,5.85157 -5.14453,6.4375 v 0.0742 c 3.23828,0.50782 4.40625,1.60157 4.60156,7.25782 0.0391,1.20703 0.42969,5.61328 0.97656,7.37109 h -3.74609 c -1.01562,-1.94922 -0.78125,-5.61719 -1.08984,-9.35938 -0.27735,-3.43359 -3.04297,-3.58984 -4.25391,-3.58984 z m 0,0"
         id="path27" />
      <path
         style="fill:#514f4f;fill-opacity:1;fill-rule:nonzero;stroke:none"
         d="m 344.58984,355.4375 h -0.0781 l -4.40625,15.01562 h 9.00781 z m -2.1875,-3.31641 h 4.56641 l 9.16406,28.16016 h -4.01562 l -2.02735,-6.70703 h -10.88281 l -2.10547,6.70703 h -3.6289 z m 0,0"
         id="path29" />
      <path
         style="fill:#514f4f;fill-opacity:1;fill-rule:nonzero;stroke:none"
         d="m 372.78906,352.12109 v 3.1211 h -7.41015 v 25.03906 h -3.58594 v -25.03906 h -7.41016 v -3.1211 z m 0,0"
         id="path31" />
      <path
         style="fill:#514f4f;fill-opacity:1;fill-rule:nonzero;stroke:none"
         d="m 389.91406,343.66016 -5.10547,5.49609 h -2.61718 l 3.47265,-5.49609 z m 0.50781,26.48046 V 360.625 c 0,-5.89063 -4.05468,-6.08594 -5.1875,-6.08594 -1.13281,0 -5.1875,0.19531 -5.1875,6.08594 v 9.51562 c 0,6.16016 1.79688,7.72266 5.1875,7.72266 3.39454,0 5.1875,-1.5625 5.1875,-7.72266 m -14.03906,-0.15625 v -9.24218 c 0,-5.61719 2.88672,-9.20703 8.85156,-9.20703 5.96875,0 8.85547,3.58984 8.85547,9.20703 v 9.24218 c 0,7.80079 -2.88672,10.88282 -8.85547,10.88282 -5.96484,0 -8.85156,-3.08203 -8.85156,-10.88282"
         id="path33" />
      <path
         style="fill:#514f4f;fill-opacity:1;fill-rule:nonzero;stroke:none"
         d="m 403.84375,364.21094 h 5.38281 c 2.57031,0 3.82031,-2.22266 3.82031,-4.67969 0,-2.02734 -1.01562,-4.28906 -3.78515,-4.28906 h -5.41797 z m 0,3.12109 v 12.94922 h -3.58984 v -28.16016 h 9.71093 c 4.99219,0 6.7461,3.51172 6.7461,7.01953 0,3.31641 -1.83203,5.85157 -5.14844,6.4375 v 0.0742 c 3.23828,0.50782 4.41016,1.60157 4.60547,7.25782 0.0351,1.20703 0.42578,5.61328 0.97265,7.37109 h -3.74218 c -1.01563,-1.94922 -0.78125,-5.61719 -1.09375,-9.35938 -0.27344,-3.43359 -3.04297,-3.58984 -4.25,-3.58984 z m 0,0"
         id="path35" />
      <path
         style="fill:#514f4f;fill-opacity:1;fill-rule:nonzero;stroke:none"
         d="m 422.48828,380.28125 h 3.58594 v -28.16016 h -3.58594 z m 0,0"
         id="path37" />
      <path
         style="fill:#514f4f;fill-opacity:1;fill-rule:nonzero;stroke:none"
         d="m 446.78516,370.14062 v -9.51953 c 0,-5.88672 -4.05469,-6.08203 -5.1875,-6.08203 -1.12891,0 -5.1875,0.19531 -5.1875,6.08203 v 9.51953 c 0,6.16016 1.79687,7.72266 5.1875,7.72266 3.39453,0 5.1875,-1.5625 5.1875,-7.72266 m -14.03907,-0.15625 v -9.24218 c 0,-5.61719 2.88672,-9.20703 8.85157,-9.20703 5.96875,0 8.85546,3.58984 8.85546,9.20703 v 9.24218 c 0,7.80079 -2.88671,10.88282 -8.85546,10.88282 -5.96485,0 -8.85157,-3.08203 -8.85157,-10.88282"
         id="path39" />
      <path
         style="fill:#514f4f;fill-opacity:1;fill-rule:nonzero;stroke:none"
         d="m 229.21094,416.16797 h 3.39062 c 4.99219,0 6.82813,-1.8711 6.82813,-8.42188 v -5.69531 c 0,-5.69531 -1.75782,-7.80078 -5.5,-7.80078 h -4.71875 z m -3.58985,-25.03906 h 8.65625 c 3.58985,0 6.16407,1.28906 7.57032,4.28906 1.1289,2.3789 1.24609,7.99609 1.24609,8.89453 0,6.00391 -0.54688,9.47656 -1.71484,11.34766 -1.52344,2.41796 -4.36719,3.6289 -9.28516,3.6289 h -6.47266 z m 0,0"
         id="path41" />
      <path
         style="fill:#514f4f;fill-opacity:1;fill-rule:nonzero;stroke:none"
         d="m 249.375,419.28906 v -28.16015 h 14.51172 V 394.25 h -10.92188 v 9.04687 h 10.14063 v 3.1211 h -10.14063 v 9.75 h 11.15235 v 3.12109 z m 0,0"
         id="path43" />
      <path
         style="fill:#514f4f;fill-opacity:1;fill-rule:nonzero;stroke:none"
         d="m 289.94141,398.89062 c 0.0391,-1.60156 -0.0781,-3.19921 -0.82032,-4.09765 -0.73828,-0.89453 -2.41797,-1.20703 -3.16015,-1.20703 -2.96094,0 -4.13282,1.79297 -4.25,2.18359 -0.11719,0.3125 -0.81641,1.01563 -0.81641,5.85156 v 7.52735 c 0,6.90234 2.26172,7.72265 5.03125,7.72265 1.08984,0 4.40625,-0.39062 4.44531,-5.89062 h 3.70313 c 0.15625,8.89062 -6.1211,8.89062 -7.95313,8.89062 -3.51172,0 -8.89453,-0.23047 -8.89453,-11.15234 v -7.95703 c 0,-7.95703 3.51172,-10.21875 9.05078,-10.21875 5.57422,0 7.71875,2.88672 7.36719,8.34765 z m 0,0"
         id="path45" />
      <path
         style="fill:#514f4f;fill-opacity:1;fill-rule:nonzero;stroke:none"
         d="m 302.73437,403.21875 h 5.38672 c 2.57032,0 3.82032,-2.22266 3.82032,-4.67969 0,-2.02734 -1.01563,-4.28906 -3.78125,-4.28906 h -5.42579 z m 0,3.12109 v 12.94922 h -3.58593 v -28.16015 h 9.71093 c 4.99219,0 6.7461,3.51171 6.7461,7.01953 0,3.3164 -1.83203,5.85156 -5.14453,6.4375 v 0.0742 c 3.23437,0.51171 4.40625,1.60156 4.60156,7.25781 0.0391,1.20703 0.42969,5.61328 0.97266,7.37109 h -3.74219 c -1.01563,-1.94922 -0.78125,-5.61719 -1.09375,-9.35937 -0.27344,-3.4336 -3.03906,-3.58985 -4.25,-3.58985 z m 0,0"
         id="path47" />
      <path
         style="fill:#514f4f;fill-opacity:1;fill-rule:nonzero;stroke:none"
         d="m 321.38281,419.28906 h 3.58594 v -28.16015 h -3.58594 z m 0,0"
         id="path49" />
      <path
         style="fill:#514f4f;fill-opacity:1;fill-rule:nonzero;stroke:none"
         d="m 340.29687,394.44531 h -0.0742 l -4.41016,15.01563 h 9.01172 z m -2.18359,-3.3164 h 4.56641 l 9.16406,28.16015 h -4.01953 l -2.02735,-6.70703 h -10.8789 l -2.10547,6.70703 h -3.62891 z m 0,0"
         id="path51" />
      <path
         style="fill:#514f4f;fill-opacity:1;fill-rule:nonzero;stroke:none"
         d="m 367.99219,398.89062 c 0.0391,-1.60156 -0.0781,-3.19921 -0.81641,-4.09765 -0.74219,-0.89453 -2.41797,-1.20703 -3.16016,-1.20703 -2.96484,0 -4.13281,1.79297 -4.2539,2.18359 -0.11719,0.3125 -0.81641,1.01563 -0.81641,5.85156 v 7.52735 c 0,6.90234 2.26172,7.72265 5.03125,7.72265 1.08985,0 4.40625,-0.39062 4.44531,-5.89062 h 3.70313 c 0.15625,8.69922 -5.84766,8.89062 -7.83594,8.89062 l -1.36719,1.75782 0.0781,0.0781 c 0.3125,-0.11719 0.78125,-0.23437 1.17187,-0.23437 1.75391,0 3.23438,1.05468 3.23438,2.96484 0,2.65234 -2.49219,3.625 -4.52344,3.625 -1.4414,0 -2.80469,-0.42578 -3.85937,-0.85938 l 0.66015,-1.55859 c 0.85938,0.3125 1.60157,0.58594 2.53907,0.58594 0.97265,0 2.22265,-0.39063 2.22265,-1.5625 0,-1.08985 -0.89844,-1.59766 -1.91406,-1.59766 -0.50391,0 -1.01172,0.19531 -1.48047,0.3125 l -0.66406,-0.73828 2.07031,-2.85156 C 359.14062,419.5625 355.27734,418 355.27734,408.71875 v -7.95703 c 0,-7.95703 3.51172,-10.21875 9.05078,-10.21875 5.57422,0 7.72266,2.88672 7.3711,8.34765 z m 0,0"
         id="path53" />
      <path
         style="fill:#514f4f;fill-opacity:1;fill-rule:nonzero;stroke:none"
         d="m 385.82031,394.44531 h -0.0781 l -4.40625,15.01563 h 9.00781 z m 6.86328,-10.6875 c -0.11718,1.08985 -0.54687,2.1836 -1.21093,2.96485 -0.66016,0.78125 -1.59766,1.28515 -2.84375,1.28515 -0.85938,0 -1.83204,-0.38672 -2.8086,-0.73828 -0.97656,-0.39062 -1.94922,-0.74219 -2.80859,-0.74219 -0.89844,0 -1.67578,0.89453 -1.79297,1.75391 h -1.79688 c 0.23438,-2.37891 1.48438,-4.21094 4.0586,-4.21094 1.05078,0 2.02734,0.35156 2.92578,0.70313 0.89453,0.39062 1.67578,0.73828 2.30078,0.73828 1.20703,0 1.87109,-0.54688 1.98828,-1.75391 z m -9.05078,7.3711 h 4.56641 l 9.16406,28.16015 h -4.01562 l -2.03125,-6.70703 H 380.4375 l -2.10547,6.70703 h -3.62891 z m 0,0"
         id="path55" />
      <path
         style="fill:#514f4f;fill-opacity:1;fill-rule:nonzero;stroke:none"
         d="m 415.03516,409.14844 v -9.51953 c 0,-5.88672 -4.0586,-6.08204 -5.1875,-6.08204 -1.12891,0 -5.1875,0.19532 -5.1875,6.08204 v 9.51953 c 0,6.16015 1.79296,7.72265 5.1875,7.72265 3.39062,0 5.1875,-1.5625 5.1875,-7.72265 m -14.03907,-0.15625 V 399.75 c 0,-5.61719 2.88282,-9.20703 8.85157,-9.20703 5.96484,0 8.85546,3.58984 8.85546,9.20703 v 9.24219 c 0,7.80078 -2.89062,10.88281 -8.85546,10.88281 -5.96875,0 -8.85157,-3.08203 -8.85157,-10.88281"
         id="path57" />
      <path
         style="fill:#514f4f;fill-opacity:1;fill-rule:nonzero;stroke:none"
         d="m 229.21094,455.17578 h 3.39062 c 4.99219,0 6.82813,-1.87109 6.82813,-8.42578 v -5.69141 c 0,-5.69531 -1.75782,-7.80078 -5.5,-7.80078 h -4.71875 z m -3.58985,-25.03906 h 8.65625 c 3.58985,0 6.16407,1.28515 7.57032,4.28906 1.1289,2.37891 1.24609,7.99609 1.24609,8.89453 0,6.00391 -0.54688,9.47656 -1.71484,11.34766 -1.52344,2.41797 -4.36719,3.6289 -9.28516,3.6289 h -6.47266 z m 0,0"
         id="path59" />
      <path
         style="fill:#514f4f;fill-opacity:1;fill-rule:nonzero;stroke:none"
         d="m 249.84375,458.29687 h 3.58594 v -28.16015 h -3.58594 z m 0,0"
         id="path61" />
      <path
         style="fill:#514f4f;fill-opacity:1;fill-rule:nonzero;stroke:none"
         d="m 273.71484,437.66406 c 0,-3.3164 -1.36718,-5.10937 -4.99218,-5.10937 -1.13282,0 -5.1875,0.19531 -5.1875,6.08593 v 9.51563 c 0,6.16016 1.79296,7.72266 5.1875,7.72266 2.57421,0 4.28906,-0.70313 5.03125,-1.25 v -8.42579 h -5.1875 v -3.11718 h 8.77343 v 13.6875 c -2.30078,1.24609 -4.99218,2.10547 -8.61718,2.10547 -5.96875,0 -8.85547,-3.07813 -8.85547,-10.87891 v -9.24609 c 0,-5.61329 2.88672,-9.20313 8.85547,-9.20313 6.08593,0 8.96875,2.22266 8.73437,8.11328 z m 0,0"
         id="path63" />
      <path
         style="fill:#514f4f;fill-opacity:1;fill-rule:nonzero;stroke:none"
         d="m 284.51953,458.29687 h 3.58984 v -28.16015 h -3.58984 z m 0,0"
         id="path65" />
      <path
         style="fill:#514f4f;fill-opacity:1;fill-rule:nonzero;stroke:none"
         d="m 310.69141,430.13672 v 3.12109 h -7.41016 v 25.03906 h -3.58984 v -25.03906 h -7.40625 v -3.12109 z m 0,0"
         id="path67" />
      <path
         style="fill:#514f4f;fill-opacity:1;fill-rule:nonzero;stroke:none"
         d="m 320.05469,433.45312 h -0.0781 l -4.40625,15.01563 h 9.00781 z m -2.1836,-3.3164 h 4.5625 l 9.16797,28.16015 h -4.01953 l -2.02734,-6.71093 h -10.88282 l -2.10546,6.71093 h -3.625 z m 0,0"
         id="path69" />
      <path
         style="fill:#514f4f;fill-opacity:1;fill-rule:nonzero;stroke:none"
         d="m 335.34766,458.29687 v -28.16015 h 3.58984 v 25.03906 h 10.33594 v 3.12109 z m 0,0"
         id="path71" />
    </g>
  </g>
</svg>
